REM DIRINDEX 1\2\6,1\2\7,1\2\8,1\3\9,1\3\10,1\3\11,1\4\12,1\4\13,1\4\14,1\5\15,1\5\16,1\5\17,1\5\18
REM DIRNAME cjc019,folder01,folder02,folder03,folder04,folder05,folder06,folder07,folder08,folder09,folder10,folder11,folder12,folder13,folder14,folder15,folder16,folder17
TITLE ""
FILE "2Q_t_0967-0984.mp3" MP3
  TRACK 01 AUDIO
    TITLE "13:cjc019_3996"
    INDEX 01 00:00:00
  TRACK 02 AUDIO
    TITLE "0:"
    INDEX 01 00:00:74
  TRACK 03 AUDIO
    TITLE "14:cjc019_3997"
    INDEX 01 00:01:52
  TRACK 04 AUDIO
    TITLE "0:"
    INDEX 01 00:02:65
  TRACK 05 AUDIO
    TITLE "13:cjc019_3998"
    INDEX 01 00:03:41
  TRACK 06 AUDIO
    TITLE "0:"
    INDEX 01 00:04:40
  TRACK 07 AUDIO
    TITLE "14:cjc019_3999"
    INDEX 01 00:05:22
  TRACK 08 AUDIO
    TITLE "0:"
    INDEX 01 00:06:35
  TRACK 09 AUDIO
    TITLE "13:cjc019_4000"
    INDEX 01 00:07:15
  TRACK 10 AUDIO
    TITLE "0:"
    INDEX 01 00:08:60
  TRACK 11 AUDIO
    TITLE "14:cjc019_4001"
    INDEX 01 00:09:40
  TRACK 12 AUDIO
    TITLE "0:"
    INDEX 01 00:11:42
  TRACK 13 AUDIO
    TITLE "13:cjc019_4002"
    INDEX 01 00:12:18
  TRACK 14 AUDIO
    TITLE "0:"
    INDEX 01 00:13:67
  TRACK 15 AUDIO
    TITLE "14:cjc019_4003"
    INDEX 01 00:14:43
  TRACK 16 AUDIO
    TITLE "0:"
    INDEX 01 00:15:58
  TRACK 17 AUDIO
    TITLE "13:cjc019_4004"
    INDEX 01 00:16:34
  TRACK 18 AUDIO
    TITLE "0:"
    INDEX 01 00:17:33
  TRACK 19 AUDIO
    TITLE "14:cjc019_4005"
    INDEX 01 00:18:15
  TRACK 20 AUDIO
    TITLE "0:"
    INDEX 01 00:21:51
  TRACK 21 AUDIO
    TITLE "13:cjc019_4006"
    INDEX 01 00:22:29
  TRACK 22 AUDIO
    TITLE "0:"
    INDEX 01 00:23:40
  TRACK 23 AUDIO
    TITLE "14:cjc019_4007"
    INDEX 01 00:24:25
  TRACK 24 AUDIO
    TITLE "0:"
    INDEX 01 00:26:44
  TRACK 25 AUDIO
    TITLE "13:cjc019_4008"
    INDEX 01 00:27:22
  TRACK 26 AUDIO
    TITLE "0:"
    INDEX 01 00:28:64
  TRACK 27 AUDIO
    TITLE "14:cjc019_4009"
    INDEX 01 00:29:44
  TRACK 28 AUDIO
    TITLE "0:"
    INDEX 01 00:31:08
  TRACK 29 AUDIO
    TITLE "13:cjc019_4010"
    INDEX 01 00:31:55
  TRACK 30 AUDIO
    TITLE "0:"
    INDEX 01 00:32:58
  TRACK 31 AUDIO
    TITLE "14:cjc019_4011"
    INDEX 01 00:33:40
  TRACK 32 AUDIO
    TITLE "0:"
    INDEX 01 00:36:05
  TRACK 33 AUDIO
    TITLE "13:cjc019_4012"
    INDEX 01 00:36:54
  TRACK 34 AUDIO
    TITLE "0:"
    INDEX 01 00:38:00
  TRACK 35 AUDIO
    TITLE "14:cjc019_4013"
    INDEX 01 00:38:55
  TRACK 36 AUDIO
    TITLE "0:"
    INDEX 01 00:39:58
  TRACK 37 AUDIO
    TITLE "13:cjc019_4014"
    INDEX 01 00:40:40
  TRACK 38 AUDIO
    TITLE "0:"
    INDEX 01 00:41:51
  TRACK 39 AUDIO
    TITLE "14:cjc019_4015"
    INDEX 01 00:42:35
  TRACK 40 AUDIO
    TITLE "0:"
    INDEX 01 00:43:54
  TRACK 41 AUDIO
    TITLE "13:cjc019_4016"
    INDEX 01 00:44:32
  TRACK 42 AUDIO
    TITLE "0:"
    INDEX 01 00:45:43
  TRACK 43 AUDIO
    TITLE "14:cjc019_4017"
    INDEX 01 00:46:23
  TRACK 44 AUDIO
    TITLE "0:"
    INDEX 01 00:47:23
  TRACK 45 AUDIO
    TITLE "13:cjc019_4018"
    INDEX 01 00:48:04
  TRACK 46 AUDIO
    TITLE "0:"
    INDEX 01 00:49:14
  TRACK 47 AUDIO
    TITLE "14:cjc019_4019"
    INDEX 01 00:49:74
  TRACK 48 AUDIO
    TITLE "0:"
    INDEX 01 00:51:09
  TRACK 49 AUDIO
    TITLE "13:cjc019_4020"
    INDEX 01 00:51:69
  TRACK 50 AUDIO
    TITLE "0:"
    INDEX 01 00:53:19
  TRACK 51 AUDIO
    TITLE "14:cjc019_4021"
    INDEX 01 00:53:74
  TRACK 52 AUDIO
    TITLE "0:"
    INDEX 01 00:55:55
  TRACK 53 AUDIO
    TITLE "13:cjc019_4022"
    INDEX 01 00:56:43
  TRACK 54 AUDIO
    TITLE "0:"
    INDEX 01 00:57:48
  TRACK 55 AUDIO
    TITLE "14:cjc019_4023"
    INDEX 01 00:58:30
  TRACK 56 AUDIO
    TITLE "0:"
    INDEX 01 01:00:43
  TRACK 57 AUDIO
    TITLE "13:cjc019_4024"
    INDEX 01 01:01:23
  TRACK 58 AUDIO
    TITLE "0:"
    INDEX 01 01:02:34
  TRACK 59 AUDIO
    TITLE "14:cjc019_4025"
    INDEX 01 01:03:18
  TRACK 60 AUDIO
    TITLE "0:"
    INDEX 01 01:05:38
  TRACK 61 AUDIO
    TITLE "13:cjc019_4026"
    INDEX 01 01:06:20
  TRACK 62 AUDIO
    TITLE "0:"
    INDEX 01 01:07:27
  TRACK 63 AUDIO
    TITLE "14:cjc019_4027"
    INDEX 01 01:08:07
  TRACK 64 AUDIO
    TITLE "0:"
    INDEX 01 01:10:12
  TRACK 65 AUDIO
    TITLE "13:cjc019_4028"
    INDEX 01 01:10:69
  TRACK 66 AUDIO
    TITLE "0:"
    INDEX 01 01:12:05
  TRACK 67 AUDIO
    TITLE "14:cjc019_4029"
    INDEX 01 01:12:58
  TRACK 68 AUDIO
    TITLE "0:"
    INDEX 01 01:13:65
  TRACK 69 AUDIO
    TITLE "13:cjc019_4030"
    INDEX 01 01:14:45
  TRACK 70 AUDIO
    TITLE "0:"
    INDEX 01 01:15:58
  TRACK 71 AUDIO
    TITLE "14:cjc019_4031"
    INDEX 01 01:16:36
  TRACK 72 AUDIO
    TITLE "0:"
    INDEX 01 01:18:68
